<svg width="35" height="36" viewBox="0 0 35 36" fill="none" xmlns="http://www.w3.org/2000/svg">
<path d="M2.34473 33.7877C12.8965 35.1955 33.9999 36.4424 33.9999 30.1676C33.9999 28.5587 29.0758 25.3408 9.37921 25.3408" stroke="#666666" stroke-linecap="round" stroke-dasharray="2 2"/>
<path d="M10.4298 25.2941C5.17782 25.8917 3.55452 20.5137 10.4298 20.5137H30.4826" stroke="#666666" stroke-linecap="round" stroke-dasharray="2 2"/>
<mask id="path-3-inside-1_315_2819" fill="white">
<path fill-rule="evenodd" clip-rule="evenodd" d="M16.3384 13.7002C17.1307 12.3412 17.5862 10.7505 17.5862 9.05022C17.5862 4.05192 13.6494 0 8.79311 0C3.93681 0 0 4.05192 0 9.05022C0 10.7593 0.460304 12.3578 1.26028 13.7214L8.79336 27.1507L16.3384 13.7002Z"/>
</mask>
<path fill-rule="evenodd" clip-rule="evenodd" d="M16.3384 13.7002C17.1307 12.3412 17.5862 10.7505 17.5862 9.05022C17.5862 4.05192 13.6494 0 8.79311 0C3.93681 0 0 4.05192 0 9.05022C0 10.7593 0.460304 12.3578 1.26028 13.7214L8.79336 27.1507L16.3384 13.7002Z" fill="#F25C5C"/>
<path d="M16.3384 13.7002L15.4745 13.1965L15.4703 13.2037L15.4662 13.211L16.3384 13.7002ZM1.26028 13.7214L2.13243 13.2322L2.1277 13.2238L2.12281 13.2155L1.26028 13.7214ZM8.79336 27.1507L7.92121 27.6399L8.79336 29.1947L9.66552 27.6399L8.79336 27.1507ZM16.5862 9.05022C16.5862 10.57 16.1794 11.9874 15.4745 13.1965L17.2023 14.2039C18.0819 12.695 18.5862 10.9309 18.5862 9.05022H16.5862ZM8.79311 1C13.0702 1 16.5862 4.57684 16.5862 9.05022H18.5862C18.5862 3.527 14.2287 -1 8.79311 -1V1ZM1 9.05022C1 4.57684 4.51607 1 8.79311 1V-1C3.35755 -1 -1 3.527 -1 9.05022H1ZM2.12281 13.2155C1.41105 12.0022 1 10.5779 1 9.05022H-1C-1 10.9408 -0.490442 12.7134 0.397741 14.2274L2.12281 13.2155ZM9.66552 26.6614L2.13243 13.2322L0.388123 14.2107L7.92121 27.6399L9.66552 26.6614ZM15.4662 13.211L7.92121 26.6614L9.66552 27.6399L17.2105 14.1894L15.4662 13.211Z" fill="#666666" mask="url(#path-3-inside-1_315_2819)"/>
<path d="M12.3966 9.0501C12.3966 11.1202 10.7698 12.7735 8.79315 12.7735C6.8165 12.7735 5.1897 11.1202 5.1897 9.0501C5.1897 6.98002 6.8165 5.32666 8.79315 5.32666C10.7698 5.32666 12.3966 6.98002 12.3966 9.0501Z" fill="white" stroke="#666666"/>
</svg>
